<svg aria-hidden="true" role="img" xmlns="http://www.w3.org/2000/svg" viewBox="0 0 135.46666 135.46666"><g transform="translate(-2.3151e-8 -161.53)"><path fill="#FFFFFF" d="m110.08 161.53c-0.20357-2e-3 -0.41277 3e-3 -0.62793 0.0187-1.0477 0-8.5017 1.4667-69.569 12.902-0.47896 0-2.7542 0.59869-4.0114 1.6464-1.2273 0.98785-1.8858 2.3051-2.1253 3.8618-0.31769 1.2708-0.28604 9.5952-0.19528 20.136l8.5368 8.5368c0.27847-2.2713 1.3603-3.0025 3.9319-3.5571 0 0 53.135-9.9384 55.589-10.357 3.4426-0.59871 5.089 0.32953 5.089 3.6823 0 47.627 0.59919 46.699-1.3167 48.854-1.3171 1.4668-2.8742 1.886-4.6704 2.2153-5.9011 1.0356-10.713 1.8038-14.701 3.0859l23.924 23.924c2.0927-2.1952 3.6097-4.9586 4.3973-8.3304 0.86812-3.7419 0.59891 1.7961 0.53906-101.33 0-3.2554-1.7366-5.2482-4.7902-5.2872zm-76.369 57.91c0.12855 19.678 0.02183 39.646-1.5213 41.404-1.3171 1.4668-2.8742 1.886-4.6704 2.2153-10.747 1.8859-17.901 2.8734-22.99 7.7229-8.771 8.5615-4.221 23.5 8.711 25.924 4.8495 0.89805 13.95-0.3294 18.979-3.1134 4.4304-2.2751 7.7829-6.3762 9.0402-11.824 0.97443-4.2225 0.80037-2.5504 0.75773-54.022zm41.279 41.279c-3.4612 6.0678-2.3869 13.76 3.539 18.744 5.6268 4.5359 11.477 4.4163 18.415 3.211z" stroke-width=".29935"/></g><g transform="translate(-2.3151e-8 -161.53)"><path fill="#FFFFFF" d="m8.9824 161.57c-1.0943-0.17736-2.4191 0.2876-3.4526 1.3211l-4.1456 4.1457c-1.5032 1.5032-1.8035 3.6226-0.67369 4.7525l124.53 124.53c1.1299 1.1299 3.2498 0.82919 4.753-0.67399l4.1454-4.1452c1.5032-1.5032 1.8037-3.6231 0.6739-4.7529l-124.53-124.53c-0.35308-0.35307-0.803-0.56645-1.3004-0.64708z" stroke-width=".2934"/></g></svg>
